# xmcd CD database file
#
# Track frame offsets:
#	183
#	23040
#	44060
#	64833
#	77625
#	98643
#	125853
#	143018
#	165803
#	177495
#
# Disc length: 2638 seconds
#
# Revision: 2
# Processed by: cddbd v1.5PL3 Copyright (c) Steve Scherf et al.
# Submitted via: CDex 1.51
#
DISCID=810a4c0a
DTITLE=RIOT - Narita
DYEAR=1979
DGENRE=Hard Rock
TTITLE0=Waiting For The Taking
TTITLE1=49er
TTITLE2=Kick Down The Wall
TTITLE3=Born To Be Wild
TTITLE4=Narita
TTITLE5=Here We Come Again
TTITLE6=Do It Up
TTITLE7=Hot For Love
TTITLE8=White Rock
TTITLE9=Road Racin'
EXTD=YEAR: 1979
EXTT0=
EXTT1=
EXTT2=
EXTT3=
EXTT4=
EXTT5=
EXTT6=
EXTT7=
EXTT8=
EXTT9=
PLAYORDER=
